<?xml version="1.0" encoding="utf-8"?>
<!-- Generator: Adobe Illustrator 24.1.1, SVG Export Plug-In . SVG Version: 6.00 Build 0)  -->
<svg version="1.1" id="Layer_1" xmlns="http://www.w3.org/2000/svg" xmlns:xlink="http://www.w3.org/1999/xlink" x="0px" y="0px"
	 viewBox="0 0 183 122" style="enable-background:new 0 0 183 122;" xml:space="preserve">
<style type="text/css">
	.st0{fill:#FFFFFF;}
</style>
<path class="st0" d="M151.5,60.2h-120C19.1,60.2,9,50.2,9,37.7v-2.6c0-12.4,10.1-22.5,22.5-22.5h120c12.4,0,22.5,10.1,22.5,22.5v2.6
	C174,50.2,163.9,60.2,151.5,60.2z"/>
<path class="st0" d="M151.5,113h-120C19.1,113,9,102.9,9,90.5v-2.6c0-12.4,10.1-22.5,22.5-22.5h120c12.4,0,22.5,10.1,22.5,22.5v2.6
	C174,102.9,163.9,113,151.5,113z"/>
</svg>
