<?xml version="1.0" encoding="utf-8"?>
<!-- Generator: Adobe Illustrator 24.1.1, SVG Export Plug-In . SVG Version: 6.00 Build 0)  -->
<svg version="1.1" id="Layer_1" xmlns="http://www.w3.org/2000/svg" xmlns:xlink="http://www.w3.org/1999/xlink" x="0px" y="0px"
	 viewBox="0 0 842 902" style="enable-background:new 0 0 842 902;" xml:space="preserve">
<style type="text/css">
	.st0{fill:#917AED;}
	.st1{display:none;fill:#FED1D4;}
	.st2{display:none;fill:#8FD4B8;}
	.st3{display:none;fill:#FDDA5F;}
</style>
<path class="st0" d="M151.6,732.8C133.8,714,29.5,604.1,56.4,502.7c18.4-69.2,80.3-68.3,101.2-146.8c20.8-78.1-30.1-117.8-7.9-173.9
	c29.1-73.7,149.2-86.3,199.3-91.6C559.8,68.2,787.7,173.1,785.3,258c-1,35.8-42.1,37.1-59.5,91.6c-29.3,91.7,66.8,151.3,62.5,243.7
	c-5.8,126.4-196.8,257.6-375.9,254.1C390.8,846.9,255.3,842,151.6,732.8z"/>
<image style="display:none;overflow:visible;enable-background:new    ;" width="2160" height="2880" xlink:href="9E06FD3E.png"  transform="matrix(0.3486 0 0 0.3486 43.3305 20.8065)">
</image>
<circle class="st1" cx="724.5" cy="185.3" r="83"/>
<circle class="st2" cx="588.5" cy="800.3" r="53"/>
<circle class="st3" cx="158" cy="201.8" r="41.5"/>
</svg>
